ply
format ascii 1.0
element vertex 111
property float x
property float y
property float z
property uchar red
property uchar green
property uchar blue
end_header
0.000000 0.000000 0.000000 144 238 144
-0.001206 0.000680 0.000394 144 238 144
0.000725 0.000892 -0.000239 144 238 144
0.001507 0.001762 -0.001311 144 238 144
0.000434 0.001907 0.003215 144 238 144
0.000454 0.001947 0.003067 144 238 144
0.000426 0.001876 0.003327 144 238 144
0.002569 0.012579 0.025489 144 238 144
0.003994 0.014502 0.028610 144 238 144
0.004799 0.016097 0.031467 144 238 144
0.005786 0.018166 0.035363 144 238 144
0.007414 0.022059 0.042715 144 238 144
0.008203 0.024264 0.046739 144 238 144
0.009767 0.029338 0.056496 144 238 144
0.010311 0.031273 0.059364 144 238 144
0.011152 0.033728 0.064920 144 238 144
0.012970 0.037746 0.071241 144 238 144
0.013625 0.041241 0.077602 144 238 144
0.016263 0.045741 0.087182 144 238 144
0.016722 0.048822 0.093081 144 238 144
0.018565 0.056297 0.106707 144 238 144
0.019430 0.063265 0.119698 144 238 144
0.020656 0.069445 0.131527 144 238 144
0.022367 0.073087 0.138419 144 238 144
0.024076 0.075642 0.143211 144 238 144
0.024951 0.080845 0.153299 144 238 144
0.026695 0.086009 0.163336 144 238 144
0.028515 0.093260 0.176027 144 238 144
0.030003 0.097443 0.184153 144 238 144
0.031966 0.101000 0.193422 144 238 144
0.034494 0.106752 0.204113 144 238 144
0.037342 0.113685 0.216966 144 238 144
0.040406 0.120676 0.230601 144 238 144
0.044471 0.125867 0.241526 144 238 144
0.047058 0.135759 0.261005 144 238 144
0.047051 0.135759 0.260992 144 238 144
0.046985 0.135708 0.260953 144 238 144
0.049951 0.145460 0.278096 144 238 144
0.052919 0.154252 0.294307 144 238 144
0.056657 0.164529 0.313982 144 238 144
0.070976 0.211894 0.406763 144 238 144
0.074529 0.219450 0.420683 144 238 144
0.076830 0.226959 0.437209 144 238 144
0.078568 0.230417 0.443386 144 238 144
0.080464 0.235555 0.452465 144 238 144
0.090630 0.272702 0.523103 144 238 144
0.095852 0.285507 0.543880 144 238 144
0.097238 0.298782 0.570084 144 238 144
0.099630 0.312620 0.596453 144 238 144
0.101535 0.322669 0.614443 144 238 144
0.106717 0.350419 0.658130 144 238 144
0.101986 0.358919 0.693714 144 238 144
0.109957 0.370497 0.706479 144 238 144
0.112181 0.386240 0.734528 144 238 144
0.111804 0.389871 0.748343 144 238 144
0.112344 0.391334 0.749488 144 238 144
0.116370 0.405832 0.775022 144 238 144
0.121573 0.423468 0.807423 144 238 144
0.124979 0.440810 0.841158 144 238 144
0.129783 0.460800 0.880945 144 238 144
0.135666 0.481285 0.919540 144 238 144
0.141658 0.506829 0.966946 144 238 144
0.145314 0.538833 1.029176 144 238 144
0.150288 0.565145 1.076628 144 238 144
0.155523 0.591732 1.131013 144 238 144
0.160336 0.612339 1.168282 144 238 144
0.165081 0.633909 1.207291 144 238 144
0.170322 0.654921 1.247063 144 238 144
0.172635 0.664566 1.268050 144 238 144
0.181310 0.677328 1.317311 144 238 144
0.192459 0.684982 1.335770 144 238 144
0.207512 0.697909 1.362051 144 238 144
0.216620 0.706301 1.377122 144 238 144
0.227361 0.715035 1.395060 144 238 144
0.235493 0.722360 1.407890 144 238 144
0.247487 0.731557 1.425379 144 238 144
0.260494 0.743020 1.444378 144 238 144
0.272099 0.751591 1.460941 144 238 144
0.289263 0.763956 1.482211 144 238 144
0.304563 0.773955 1.501280 144 238 144
0.325913 0.822160 1.571968 144 238 144
0.336597 0.828541 1.585183 144 238 144
0.341825 0.840793 1.615587 144 238 144
0.345458 0.855064 1.643974 144 238 144
0.353610 0.874497 1.685714 144 238 144
0.356586 0.888323 1.716430 144 238 144
0.361989 0.896828 1.738207 144 238 144
0.365953 0.911211 1.768741 144 238 144
0.375946 0.939634 1.829494 144 238 144
0.381116 0.954796 1.857230 144 238 144
0.383306 0.969227 1.884609 144 238 144
0.388133 0.977934 1.907938 144 238 144
0.392623 0.992204 1.934105 144 238 144
0.396949 1.006448 1.961551 144 238 144
0.399722 1.019572 1.988093 144 238 144
0.402757 1.032756 2.012675 144 238 144
0.404112 1.041757 2.031474 144 238 144
0.405572 1.052908 2.050844 144 238 144
0.406744 1.064005 2.072853 144 238 144
0.408765 1.073207 2.090696 144 238 144
0.410122 1.082345 2.108392 144 238 144
0.410421 1.088582 2.119615 144 238 144
0.410447 1.096935 2.133581 144 238 144
0.411720 1.104797 2.149149 144 238 144
0.412538 1.114054 2.166396 144 238 144
0.414247 1.118241 2.175277 144 238 144
0.414163 1.118422 2.175382 144 238 144
0.414216 1.118330 2.175220 144 238 144
0.414162 1.118297 2.175320 144 238 144
0.414217 1.118414 2.175277 144 238 144
0.414201 1.118235 2.175166 144 238 144
