ply
format ascii 1.0
element vertex 42
property float x
property float y
property float z
property uchar red
property uchar green
property uchar blue
end_header
0.000000 0.000000 0.000000 144 238 144
-0.000349 -0.003525 -0.002544 144 238 144
-0.001156 -0.005262 -0.001976 144 238 144
0.000133 -0.005160 -0.002178 144 238 144
-0.000325 -0.013430 -0.005086 144 238 144
-0.038206 -0.003692 -0.000557 144 238 144
-0.039106 -0.001003 0.001118 144 238 144
-0.039393 -0.001188 0.001652 144 238 144
-0.039640 -0.000530 0.001374 144 238 144
-0.048422 -0.002552 0.003663 144 238 144
-0.063774 0.007228 0.109224 144 238 144
-0.063060 0.007444 0.120398 144 238 144
-0.063341 0.008027 0.129158 144 238 144
-0.063535 0.007895 0.134992 144 238 144
-0.062708 0.008235 0.142404 144 238 144
-0.061365 0.007415 0.177868 144 238 144
-0.058680 0.006330 0.199558 144 238 144
-0.057989 0.006008 0.222209 144 238 144
-0.056570 0.006630 0.239260 144 238 144
-0.055676 0.006293 0.249456 144 238 144
-0.055216 0.006263 0.255549 144 238 144
-0.055021 0.005838 0.273004 144 238 144
-0.054750 0.004951 0.295411 144 238 144
-0.054654 0.005203 0.341383 144 238 144
-0.056983 0.004926 0.377586 144 238 144
-0.057117 0.005596 0.377867 144 238 144
-0.056596 0.005112 0.378493 144 238 144
-0.056555 0.003936 0.400081 144 238 144
-0.057813 0.003897 0.425117 144 238 144
-0.063257 0.003207 0.455543 144 238 144
-0.064464 0.003139 0.469412 144 238 144
-0.065602 0.002439 0.485724 144 238 144
-0.047333 0.002765 0.540614 144 238 144
-0.046820 0.004463 0.570559 144 238 144
-0.046709 0.003872 0.570292 144 238 144
-0.043399 0.003038 0.614318 144 238 144
-0.044655 0.005565 0.636901 144 238 144
-0.041848 0.003265 0.656812 144 238 144
-0.035960 0.002632 0.678943 144 238 144
-0.034945 0.001840 0.701880 144 238 144
-0.034791 0.003052 0.705252 144 238 144
-0.034404 0.003150 0.705242 144 238 144
