ply
format ascii 1.0
element vertex 299
property float x
property float y
property float z
property uchar red
property uchar green
property uchar blue
end_header
0.000000 0.000000 0.000000 144 238 144
0.000072 0.011215 0.004294 144 238 144
-0.000055 0.015930 0.005685 144 238 144
-0.000438 0.031120 0.010115 144 238 144
-0.000680 0.040605 0.012583 144 238 144
-0.001116 0.052518 0.015132 144 238 144
-0.001621 0.059508 0.015963 144 238 144
-0.002103 0.053518 0.013912 144 238 144
-0.001600 -0.020846 -0.003715 144 238 144
0.001101 0.022067 -0.005616 144 238 144
0.018710 0.018122 -0.001968 144 238 144
0.046780 0.015233 0.001807 144 238 144
0.068152 0.017300 0.003866 144 238 144
0.045118 0.018235 -0.000415 144 238 144
-0.028890 0.019981 -0.008242 144 238 144
-0.043871 0.022785 -0.009204 144 238 144
-0.052655 0.023498 -0.009985 144 238 144
-0.034315 0.021091 -0.012662 144 238 144
-0.002836 0.020298 -0.010962 144 238 144
0.014896 0.019905 -0.008951 144 238 144
0.028181 0.020880 -0.006497 144 238 144
0.035894 0.022986 -0.002633 144 238 144
0.042303 0.021841 0.004613 144 238 144
0.048935 0.019433 0.014017 144 238 144
-0.032365 0.022657 0.010547 144 238 144
-0.026931 0.032159 -0.009094 144 238 144
-0.010443 0.036488 -0.020048 144 238 144
0.017820 0.036230 -0.021985 144 238 144
0.040593 0.032938 -0.011051 144 238 144
0.058772 0.025470 0.011598 144 238 144
0.051983 0.021426 0.027856 144 238 144
0.009953 0.038803 -0.001320 144 238 144
0.028733 0.044559 -0.014870 144 238 144
0.021972 0.046257 -0.028543 144 238 144
0.003252 0.046949 -0.046555 144 238 144
0.007999 0.035635 -0.008387 144 238 144
-0.005390 0.039583 -0.002826 144 238 144
0.000339 0.045946 0.000601 144 238 144
0.004333 0.047113 0.014749 144 238 144
0.007966 0.052887 0.032391 144 238 144
0.011608 0.062147 0.051470 144 238 144
0.011874 0.062121 0.051366 144 238 144
0.014423 0.062682 0.049770 144 238 144
0.018811 0.063619 0.047425 144 238 144
0.026687 0.062624 0.040559 144 238 144
0.029764 0.048290 0.030235 144 238 144
0.028678 0.047881 0.033192 144 238 144
0.027511 -0.004512 0.037075 144 238 144
0.040968 -0.012056 0.025031 144 238 144
0.050598 -0.006126 0.023982 144 238 144
0.057508 -0.018541 0.028263 144 238 144
0.067387 -0.033261 0.031263 144 238 144
0.085180 -0.035738 0.037234 144 238 144
0.148826 -0.039651 0.079964 144 238 144
0.170676 -0.042114 0.098870 144 238 144
0.193004 -0.053973 0.114704 144 238 144
0.239370 -0.081560 0.158168 144 238 144
0.312849 -0.096788 0.248274 144 238 144
0.334246 -0.098661 0.303161 144 238 144
0.346619 -0.106760 0.329567 144 238 144
0.382313 -0.128811 0.438982 144 238 144
0.400019 -0.145683 0.477994 144 238 144
0.418888 -0.160119 0.518673 144 238 144
0.437531 -0.175194 0.563393 144 238 144
0.450368 -0.189395 0.601056 144 238 144
0.461636 -0.203023 0.641417 144 238 144
0.473227 -0.225180 0.674383 144 238 144
0.491945 -0.255698 0.713584 144 238 144
0.517240 -0.296534 0.758238 144 238 144
0.537151 -0.318683 0.798789 144 238 144
0.544277 -0.322069 0.837507 144 238 144
0.546448 -0.337933 0.874107 144 238 144
0.546490 -0.360967 0.896119 144 238 144
0.546582 -0.367794 0.922596 144 238 144
0.549347 -0.366357 0.956646 144 238 144
0.556283 -0.381733 0.992051 144 238 144
0.569103 -0.398911 1.036540 144 238 144
0.588862 -0.397733 1.082659 144 238 144
0.622740 -0.416212 1.167605 144 238 144
0.667461 -0.438827 1.271142 144 238 144
0.678244 -0.442243 1.293443 144 238 144
0.684145 -0.449603 1.302330 144 238 144
0.714859 -0.459283 1.337317 144 238 144
0.723696 -0.461589 1.348296 144 238 144
0.735852 -0.472758 1.360112 144 238 144
0.750704 -0.490354 1.387777 144 238 144
0.815714 -0.478469 1.504642 144 238 144
0.830875 -0.481426 1.527805 144 238 144
0.845937 -0.487469 1.556763 144 238 144
0.859685 -0.493132 1.589892 144 238 144
0.891073 -0.528047 1.665742 144 238 144
0.909759 -0.543876 1.699985 144 238 144
0.934515 -0.562498 1.739566 144 238 144
0.968802 -0.594663 1.776537 144 238 144
1.005201 -0.618520 1.813753 144 238 144
1.039081 -0.632390 1.840494 144 238 144
1.070104 -0.639409 1.854969 144 238 144
1.121248 -0.629411 1.873881 144 238 144
1.211156 -0.645140 1.869144 144 238 144
1.256712 -0.684503 1.850857 144 238 144
1.288758 -0.686061 1.831075 144 238 144
1.310412 -0.667351 1.806025 144 238 144
1.319104 -0.667405 1.751377 144 238 144
1.313547 -0.632368 1.704661 144 238 144
1.323631 -0.596049 1.619829 144 238 144
1.333951 -0.590235 1.597324 144 238 144
1.338883 -0.590082 1.583653 144 238 144
1.342155 -0.589738 1.571472 144 238 144
1.330730 -0.570894 1.487444 144 238 144
1.326488 -0.567913 1.477614 144 238 144
1.308140 -0.551318 1.453797 144 238 144
1.284802 -0.539154 1.436053 144 238 144
1.272991 -0.527816 1.428656 144 238 144
1.254187 -0.509800 1.413585 144 238 144
1.246780 -0.505311 1.404207 144 238 144
1.239551 -0.503213 1.395570 144 238 144
1.229695 -0.502624 1.379174 144 238 144
1.203341 -0.495987 1.334569 144 238 144
1.192863 -0.488815 1.322392 144 238 144
1.180732 -0.481181 1.310423 144 238 144
1.165137 -0.475492 1.298275 144 238 144
1.149126 -0.468341 1.286714 144 238 144
1.133094 -0.459426 1.272640 144 238 144
1.116717 -0.448492 1.259327 144 238 144
1.100848 -0.436558 1.243116 144 238 144
1.084867 -0.428489 1.224014 144 238 144
1.069413 -0.419816 1.202940 144 238 144
1.055490 -0.410863 1.181759 144 238 144
1.042777 -0.399034 1.161572 144 238 144
1.032498 -0.387691 1.142222 144 238 144
1.023828 -0.376579 1.125723 144 238 144
1.016338 -0.364202 1.111456 144 238 144
1.003099 -0.341995 1.092345 144 238 144
0.996920 -0.335136 1.085806 144 238 144
0.988331 -0.326912 1.076131 144 238 144
0.980293 -0.318995 1.067259 144 238 144
0.972714 -0.309307 1.061044 144 238 144
0.964735 -0.297913 1.056710 144 238 144
0.958066 -0.284706 1.054098 144 238 144
0.950550 -0.261769 1.050352 144 238 144
0.952414 -0.253926 1.047079 144 238 144
0.960922 -0.236162 1.045102 144 238 144
0.967160 -0.224079 1.047967 144 238 144
0.975284 -0.208104 1.057018 144 238 144
0.986013 -0.190991 1.077123 144 238 144
0.989887 -0.201887 1.107156 144 238 144
0.985016 -0.208512 1.116829 144 238 144
0.979796 -0.210944 1.129385 144 238 144
0.975676 -0.212375 1.144186 144 238 144
0.972813 -0.209009 1.158393 144 238 144
0.969564 -0.203860 1.168362 144 238 144
0.967424 -0.198461 1.172719 144 238 144
0.969222 -0.188482 1.174737 144 238 144
0.984113 -0.171458 1.178370 144 238 144
1.016336 -0.167656 1.185837 144 238 144
1.044000 -0.171835 1.197114 144 238 144
1.078622 -0.167924 1.221115 144 238 144
1.109951 -0.166536 1.249106 144 238 144
1.137721 -0.173252 1.276505 144 238 144
1.165418 -0.187165 1.301974 144 238 144
1.192046 -0.201696 1.325307 144 238 144
1.218745 -0.218405 1.348810 144 238 144
1.271317 -0.248416 1.407911 144 238 144
1.290310 -0.259626 1.438446 144 238 144
1.346687 -0.281709 1.506984 144 238 144
1.365726 -0.288897 1.527496 144 238 144
1.387119 -0.292779 1.543290 144 238 144
1.415484 -0.286893 1.564580 144 238 144
1.449703 -0.276118 1.588567 144 238 144
1.481280 -0.282439 1.614197 144 238 144
1.508901 -0.289801 1.647989 144 238 144
1.527137 -0.292915 1.681436 144 238 144
1.537153 -0.305803 1.723909 144 238 144
1.532802 -0.320130 1.747524 144 238 144
1.491910 -0.331267 1.754450 144 238 144
1.362655 -0.327792 1.634381 144 238 144
1.204348 -0.304943 1.331418 144 238 144
1.198229 -0.274121 1.296536 144 238 144
1.350026 -0.283409 1.480536 144 238 144
1.396241 -0.293382 1.549145 144 238 144
1.433323 -0.287797 1.617807 144 238 144
1.452464 -0.304415 1.683584 144 238 144
1.473688 -0.315629 1.750269 144 238 144
1.481305 -0.337915 1.836975 144 238 144
1.497759 -0.376419 1.905720 144 238 144
1.474510 -0.386366 1.940288 144 238 144
1.470236 -0.396060 1.941371 144 238 144
1.467334 -0.409989 1.937848 144 238 144
1.460746 -0.424022 1.927563 144 238 144
1.445073 -0.427032 1.905240 144 238 144
1.397232 -0.410213 1.854242 144 238 144
1.372146 -0.398575 1.835261 144 238 144
1.318447 -0.384934 1.793216 144 238 144
1.285210 -0.378929 1.761950 144 238 144
1.232213 -0.364415 1.709735 144 238 144
1.202033 -0.354832 1.679490 144 238 144
1.174864 -0.348287 1.648647 144 238 144
1.147915 -0.335175 1.617879 144 238 144
1.123099 -0.316701 1.586602 144 238 144
1.099115 -0.301657 1.555945 144 238 144
1.040759 -0.290016 1.473672 144 238 144
1.024155 -0.275910 1.444325 144 238 144
0.996360 -0.248126 1.374004 144 238 144
0.977613 -0.233954 1.333055 144 238 144
0.958162 -0.211756 1.294716 144 238 144
0.850801 -0.132885 1.098156 144 238 144
0.840320 -0.103572 1.078217 144 238 144
0.821707 -0.055212 1.031372 144 238 144
0.805854 -0.033356 1.004437 144 238 144
0.793177 -0.024988 0.985336 144 238 144
0.773125 -0.024961 0.957969 144 238 144
0.754958 -0.031050 0.938298 144 238 144
0.735079 -0.036614 0.929416 144 238 144
0.721562 -0.042841 0.931498 144 238 144
0.703393 -0.056859 0.941313 144 238 144
0.691969 -0.059659 0.960459 144 238 144
0.693124 -0.061716 0.980724 144 238 144
0.711771 -0.071189 1.003294 144 238 144
0.756155 -0.097100 1.019472 144 238 144
0.797252 -0.117405 1.029536 144 238 144
0.844763 -0.140475 1.036484 144 238 144
0.895564 -0.182033 1.033082 144 238 144
0.945429 -0.225186 1.021305 144 238 144
0.958553 -0.236669 1.025699 144 238 144
0.959105 -0.250826 1.051699 144 238 144
0.959978 -0.263496 1.072778 144 238 144
0.965852 -0.266469 1.104513 144 238 144
0.972423 -0.278655 1.123128 144 238 144
0.974995 -0.269816 1.147566 144 238 144
0.975057 -0.264010 1.152195 144 238 144
0.887299 -0.244481 1.062551 144 238 144
0.833329 -0.217158 1.038398 144 238 144
0.831142 -0.173206 1.018933 144 238 144
0.891105 -0.137842 0.987576 144 238 144
0.964624 -0.074863 0.996373 144 238 144
1.043666 -0.063217 1.019667 144 238 144
1.114545 -0.055461 1.036406 144 238 144
1.216395 -0.062412 1.124940 144 238 144
1.289019 -0.077890 1.200581 144 238 144
1.368420 -0.097966 1.279796 144 238 144
1.447172 -0.169998 1.390637 144 238 144
1.600544 -0.196394 1.589087 144 238 144
1.628080 -0.214631 1.637243 144 238 144
1.640440 -0.236962 1.746925 144 238 144
1.635260 -0.232345 1.819787 144 238 144
1.629734 -0.236769 1.863544 144 238 144
1.611588 -0.251721 1.899594 144 238 144
1.576339 -0.266969 1.917752 144 238 144
1.449415 -0.314007 1.891845 144 238 144
1.386992 -0.332872 1.851992 144 238 144
1.329327 -0.341738 1.798539 144 238 144
1.277063 -0.322255 1.739437 144 238 144
1.205026 -0.306172 1.594850 144 238 144
1.165469 -0.264911 1.482974 144 238 144
1.087188 -0.214992 1.406708 144 238 144
1.052240 -0.191245 1.369345 144 238 144
1.020564 -0.163779 1.320089 144 238 144
1.000499 -0.140850 1.278606 144 238 144
0.989070 -0.125986 1.243972 144 238 144
0.989522 -0.111206 1.211799 144 238 144
0.999899 -0.083601 1.147764 144 238 144
0.990184 -0.062875 1.078500 144 238 144
0.967834 -0.036402 0.997618 144 238 144
0.930477 -0.114715 0.829336 144 238 144
0.868002 -0.127756 0.737469 144 238 144
0.786863 -0.091588 0.616661 144 238 144
0.732712 -0.085512 0.561369 144 238 144
0.727231 -0.042898 0.518055 144 238 144
0.659477 -0.033459 0.397436 144 238 144
0.582191 -0.016852 0.297245 144 238 144
0.534172 -0.047296 0.251306 144 238 144
0.450444 -0.031038 0.200326 144 238 144
0.451516 -0.039656 0.197845 144 238 144
0.481253 -0.022624 0.205343 144 238 144
0.513297 0.030555 0.215146 144 238 144
0.525100 0.085456 0.218539 144 238 144
0.554186 0.135993 0.253181 144 238 144
0.604744 0.168024 0.320286 144 238 144
0.645750 0.249761 0.389084 144 238 144
0.690645 0.300889 0.424921 144 238 144
0.691828 0.270849 0.429561 144 238 144
0.648733 0.163639 0.488563 144 238 144
0.664843 0.118512 0.495735 144 238 144
0.643468 0.055190 0.456311 144 238 144
0.604649 -0.046274 0.408500 144 238 144
0.590693 -0.091322 0.394115 144 238 144
0.499862 -0.092023 0.350663 144 238 144
0.358998 -0.073023 0.256275 144 238 144
0.258153 -0.057074 0.182719 144 238 144
0.148841 -0.040552 0.087015 144 238 144
0.071993 -0.033247 0.047957 144 238 144
0.015543 -0.007795 0.042839 144 238 144
0.011538 0.017279 0.034866 144 238 144
0.006786 0.053991 0.020120 144 238 144
-0.007100 0.058781 0.022106 144 238 144
-0.017900 0.053619 0.023263 144 238 144
-0.029650 0.052989 0.023165 144 238 144
-0.033456 0.067416 0.031907 144 238 144
-0.029748 0.068486 0.031077 144 238 144
