ply
format ascii 1.0
element vertex 53
property float x
property float y
property float z
property uchar red
property uchar green
property uchar blue
end_header
0.000000 0.000000 0.000000 144 238 144
0.000045 -0.000101 0.000092 144 238 144
0.000046 -0.000101 0.000095 144 238 144
0.000067 -0.000129 0.000091 144 238 144
0.000973 -0.000616 0.007272 144 238 144
0.000829 -0.000646 0.008501 144 238 144
0.000936 -0.000736 0.010352 144 238 144
0.000827 -0.000945 0.013676 144 238 144
0.000981 -0.000902 0.013971 144 238 144
0.001519 -0.001004 0.017092 144 238 144
0.002698 -0.001341 0.026641 144 238 144
0.002625 -0.001306 0.026337 144 238 144
0.004325 -0.001881 0.039677 144 238 144
0.005473 -0.002113 0.047762 144 238 144
0.005610 -0.002269 0.050170 144 238 144
0.005711 -0.002246 0.051000 144 238 144
0.005746 -0.002270 0.052115 144 238 144
0.005788 -0.002344 0.055213 144 238 144
0.005905 -0.002523 0.058624 144 238 144
0.005945 -0.002560 0.060426 144 238 144
0.006041 -0.002632 0.063118 144 238 144
0.000892 -0.002402 0.085961 144 238 144
-0.000572 -0.002702 0.087411 144 238 144
-0.001058 -0.002636 0.087613 144 238 144
-0.006481 -0.002029 0.088111 144 238 144
-0.005655 -0.001661 0.088341 144 238 144
-0.006710 -0.001851 0.088123 144 238 144
-0.010102 -0.000570 0.087147 144 238 144
-0.012261 -0.001034 0.085004 144 238 144
-0.012467 -0.000832 0.085192 144 238 144
-0.012369 -0.001063 0.085239 144 238 144
-0.012413 -0.000912 0.086947 144 238 144
-0.013261 -0.000944 0.088586 144 238 144
-0.013274 -0.000927 0.088601 144 238 144
-0.013403 -0.000922 0.088842 144 238 144
-0.016183 -0.001035 0.096542 144 238 144
-0.016179 -0.001032 0.096790 144 238 144
-0.016124 -0.000958 0.096546 144 238 144
-0.017987 -0.002734 0.115725 144 238 144
-0.018007 -0.002708 0.115898 144 238 144
-0.018011 -0.002689 0.115947 144 238 144
-0.019686 -0.002786 0.120423 144 238 144
-0.019982 -0.002936 0.121612 144 238 144
-0.020854 -0.003017 0.123436 144 238 144
-0.021932 -0.003066 0.125852 144 238 144
-0.022773 -0.003252 0.127681 144 238 144
-0.023132 -0.003299 0.128390 144 238 144
-0.023408 -0.003327 0.129177 144 238 144
-0.023772 -0.003344 0.130293 144 238 144
-0.024257 -0.003387 0.131369 144 238 144
-0.026021 -0.003710 0.135591 144 238 144
-0.026022 -0.003716 0.135557 144 238 144
-0.026035 -0.003702 0.135599 144 238 144
